<?xml version="1.0" encoding="UTF-8" standalone="no"?>
<!-- Created with Inkscape (http://www.inkscape.org/) -->

<svg
   width="512"
   height="512"
   viewBox="0 0 135.46666 135.46667"
   version="1.1"
   id="svg5"
   inkscape:export-filename="/home/rudson/Documents/Projects/Flutter/bares/flutter_app/assets/images/cliente.png"
   inkscape:export-xdpi="124.21509"
   inkscape:export-ydpi="124.21509"
   sodipodi:docname="users.svg"
   inkscape:version="1.1.2 (0a00cf5339, 2022-02-04)"
   xmlns:inkscape="http://www.inkscape.org/namespaces/inkscape"
   xmlns:sodipodi="http://sodipodi.sourceforge.net/DTD/sodipodi-0.dtd"
   xmlns="http://www.w3.org/2000/svg"
   xmlns:svg="http://www.w3.org/2000/svg">
  <sodipodi:namedview
     id="namedview7"
     pagecolor="#ffffff"
     bordercolor="#666666"
     borderopacity="1.0"
     inkscape:pageshadow="2"
     inkscape:pageopacity="0.0"
     inkscape:pagecheckerboard="0"
     inkscape:document-units="mm"
     showgrid="false"
     units="px"
     inkscape:zoom="0.70710678"
     inkscape:cx="-87.681241"
     inkscape:cy="200.81833"
     inkscape:window-width="1920"
     inkscape:window-height="1043"
     inkscape:window-x="0"
     inkscape:window-y="0"
     inkscape:window-maximized="1"
     inkscape:current-layer="layer1" />
  <defs
     id="defs2" />
  <g
     inkscape:groupmode="layer"
     id="layer2"
     inkscape:label="Layer 2"
     style="display:none">
    <g
       id="g5643"
       transform="translate(1.0583333)">
      <path
         style="fill:#000000;stroke:none;stroke-width:0.264583px;stroke-linecap:butt;stroke-linejoin:miter;stroke-opacity:1"
         d="M 67.124703,71.937207 73.721978,86.251316 67.124703,100.69361 60.378704,86.251316 Z"
         id="path1614"
         sodipodi:nodetypes="ccccc" />
      <g
         id="g5252">
        <path
           style="fill:#000000;stroke:none;stroke-width:0.264583;stroke-linecap:butt;stroke-linejoin:miter;stroke-miterlimit:4;stroke-dasharray:none;stroke-opacity:1"
           d="m 66.895867,15.656362 c -15.851681,0.08074 -25.896754,14.079976 -25.896754,27.163946 0,13.083969 11.958193,25.046607 25.896754,25.065549 C 80.834427,67.904799 92.970843,56.195073 92.96566,42.820308 92.960477,29.445542 82.747547,15.575619 66.895867,15.656362 Z"
           id="path1085"
           sodipodi:nodetypes="zzzzz" />
        <path
           id="path1616"
           style="fill:#000000;stroke:none;stroke-width:0.999999px;stroke-linecap:butt;stroke-linejoin:miter;stroke-opacity:1"
           d="m 183.36133,245.07617 c -54.95149,0 -84.441408,25.74638 -84.441408,72.36914 V 454.87305 H 407.40625 V 317.44531 c 0,-47.77232 -30.51268,-72.60403 -83.61328,-72.36914 l -70.09375,152.35352 z m 156.53711,96.84961 h 12.41015 v 9.70117 h 20.40625 c 2.68129,0 5.16211,3.16768 5.16211,5.85157 v 21.39453 c 0,3.48937 -2.35402,5.26562 -6.02539,5.26562 h -50.85742 c -3.21528,0 -6.65234,-0.40405 -6.65234,-5.26562 v -21.39453 c 0,-3.80633 2.20492,-5.59159 5.55078,-5.85157 h 20.00586 z"
           transform="scale(0.26458333)" />
      </g>
      <path
         style="fill:#000000;stroke:none;stroke-width:0.264583px;stroke-linecap:butt;stroke-linejoin:miter;stroke-opacity:1"
         d="m 90.794823,91.37299 h 1.460791 v 5.145419 h -1.460791 z"
         id="path4346"
         sodipodi:nodetypes="ccccc" />
    </g>
  </g>
  <g
     inkscape:groupmode="layer"
     id="layer3"
     inkscape:label="Layer 3"
     style="display:none"
     sodipodi:insensitive="true">
    <g
       id="g7363"
       style="display:inline">
      <path
         style="display:inline;fill:#000000;stroke:none;stroke-width:0.999999;stroke-linecap:butt;stroke-linejoin:miter;stroke-miterlimit:4;stroke-dasharray:none;stroke-opacity:1"
         d="m 330.92969,271.97852 -0.33399,0.32031 -81.84765,0.42187 c -45.0171,0.23312 -82.46205,0.28543 -83.20899,0.11524 -0.36771,-0.0838 -0.69288,-0.18625 -0.99804,-0.3086 -9.67702,16.46337 -14.93164,35.32885 -14.93164,53.71875 0,49.45123 45.19577,94.66475 97.87695,94.73633 52.68117,0.0714 98.55084,-44.18603 98.53125,-94.73633 -0.007,-18.76275 -5.33341,-37.78106 -15.08789,-54.26757 z"
         id="path7140"
         transform="scale(0.26458333)" />
      <path
         id="path5735"
         style="display:inline;fill:#000000;stroke:none;stroke-width:0.264583px;stroke-linecap:butt;stroke-linejoin:miter;stroke-opacity:1"
         d="m 47.099316,108.34202 c -14.539248,0 -22.341789,10.04771 -22.341789,19.14767 h 81.620333 c 0,-8.70467 -8.07314,-19.20982 -22.122673,-19.14767 -5.111348,4.9542 -11.889565,6.93191 -18.545638,6.95908 -6.656073,0.0272 -13.688637,-2.16253 -18.610233,-6.95908 z"
         sodipodi:nodetypes="cccczc" />
      <path
         id="path6048"
         style="display:inline;opacity:1;fill:#000000;stroke:none;stroke-width:0.254317"
         d="m 64.891742,18.881744 c -1.814368,0.02074 -3.63912,0.25406 -5.41474,0.712735 -3.389883,0.87567 -6.073543,2.310134 -8.42327,4.502272 -1.555796,1.451449 -3.350022,4.363834 -3.702041,6.009976 -0.15826,0.740093 -0.38913,1.840905 -0.513427,2.445709 -0.255419,1.24285 -0.91502,1.749088 -1.740289,1.336676 -0.412089,-0.205935 -0.497673,-0.555506 -0.466682,-1.905196 0.03286,-1.431074 0.551186,-3.568272 1.169389,-4.821097 0.164783,-0.333947 0.02813,-0.362374 -1.1464,-0.237179 -3.814788,0.406622 -7.969668,2.114089 -11.019528,4.528492 -2.382873,1.886385 -3.90609,3.809939 -4.971047,6.278149 -0.69317,1.606558 -0.77397,2.122246 -0.77397,4.933723 0,2.811476 0.08078,3.327167 0.77397,4.933724 1.651709,3.828107 4.949562,6.946364 9.58653,9.064731 3.122698,1.42658 3.776918,1.872292 4.19401,2.855112 l 0.319549,0.751471 h 22.90422 22.904981 l 7.68e-4,-0.504159 c 0.0021,-0.984702 1.07311,-1.894991 3.650698,-3.103023 4.63328,-2.171462 7.905597,-5.28197 9.537487,-9.064132 0.69317,-1.606557 0.77473,-2.122248 0.77473,-4.933724 0,-2.811477 -0.0815,-3.327165 -0.77473,-4.933723 -1.06497,-2.46821 -2.587419,-4.391764 -4.970287,-6.278149 -3.04497,-2.410531 -7.204932,-4.121734 -11.004202,-4.526703 -1.291212,-0.13763 -1.31398,-0.129294 -1.097351,0.398082 1.197189,2.914504 1.627895,5.982526 0.905775,6.448584 -1.11061,0.716797 -2.202619,-0.248194 -2.210035,-1.95287 -0.0097,-2.264126 -1.774075,-5.65259 -4.036916,-7.753079 -3.662723,-3.399936 -9.014087,-5.248602 -14.457192,-5.186402 z m -22.173157,43.18365 v 4.666747 c 0,4.693295 0.107239,5.23402 1.080495,5.455762 0.197626,0.04503 10.104524,0.03129 22.015298,-0.03039 L 87.47028,72.04548 88.021254,71.516294 c 0.501303,-0.481577 0.551743,-0.933163 0.551743,-4.99034 v -4.46055 H 65.645794 Z" />
    </g>
  </g>
  <g
     inkscape:groupmode="layer"
     id="layer4"
     inkscape:label="Layer 4"
     style="display:none"
     sodipodi:insensitive="true">
    <g
       id="g10866">
      <path
         style="fill:none;stroke:#000000;stroke-width:8;stroke-linecap:butt;stroke-linejoin:miter;stroke-miterlimit:4;stroke-dasharray:none;stroke-opacity:1"
         d="M 79.906604,47.738244 V 39.768783 H 68.720117 c -2.472724,0 -3.912992,-1.1395 -3.87681,-3.296752 l 0.190377,-11.3506 c 0.02497,-1.48867 0.07269,-3.17795 3.686433,-3.17795 h 28.80851 c 2.324776,0 3.054053,1.378683 3.054053,3.17795 v 11.3506 c 0,2.688699 -1.652902,3.296752 -3.054053,3.296752 H 85.613151 v 7.969461 z"
         id="path8671"
         sodipodi:nodetypes="ccssssssssccc" />
      <path
         style="display:inline;opacity:1;fill:#ffffff;stroke:#000000;stroke-width:8;stroke-linecap:butt;stroke-linejoin:miter;stroke-miterlimit:4;stroke-dasharray:none;stroke-opacity:1"
         d="M 29.791449,90.377419 35.845272,57.77491 c 0.544926,-2.934666 3.756944,-6.371486 7.98092,-6.38955 l 48.533931,-0.207546 c 3.860362,-0.0165 8.444187,2.896219 9.052707,6.171381 l 6.01221,32.358993 z"
         id="path8236"
         sodipodi:nodetypes="csssscc" />
      <path
         style="fill:none;stroke:#000000;stroke-width:8;stroke-linecap:butt;stroke-linejoin:miter;stroke-miterlimit:4;stroke-dasharray:none;stroke-opacity:1"
         d="m 45.698368,65.800024 c 0,-1.662755 0.691979,-3.050439 2.806279,-3.050439 h 11.813685 c 1.257453,0 2.78521,0.295666 2.78521,3.050439 v 11.228195 c 0,1.640066 -0.876541,2.982982 -2.78521,2.982982 H 48.504647 c -1.501201,0 -2.806279,-0.980744 -2.806279,-2.982982 z"
         id="path9679"
         sodipodi:nodetypes="sssssssss" />
      <path
         style="fill:none;stroke:#000000;stroke-width:0.264583px;stroke-linecap:butt;stroke-linejoin:miter;stroke-opacity:1"
         d="m 76.238602,61.596793 h 13.427071 c 4.830695,0 4.908469,7.153628 0,7.153628 H 76.238602 c -5.267776,0 -5.578114,-7.153628 0,-7.153628 z"
         id="path9681"
         sodipodi:nodetypes="sssss" />
      <path
         style="fill:#000000;stroke:none;stroke-width:0.264583px;stroke-linecap:butt;stroke-linejoin:miter;stroke-opacity:1"
         d="m 76.238602,61.596793 h 13.427071 c 4.830695,0 4.908469,7.153628 0,7.153628 H 76.238602 c -5.267776,0 -5.578114,-7.153628 0,-7.153628 z"
         id="path10348"
         sodipodi:nodetypes="sssss" />
      <path
         style="fill:#000000;stroke:none;stroke-width:0.264583px;stroke-linecap:butt;stroke-linejoin:miter;stroke-opacity:1"
         d="m 76.238602,75.818839 h 13.427071 c 4.830695,0 4.908469,7.153628 0,7.153628 H 76.238602 c -5.267776,0 -5.578114,-7.153628 0,-7.153628 z"
         id="path10468"
         sodipodi:nodetypes="sssss" />
      <path
         style="fill:none;stroke:#000000;stroke-width:8;stroke-linecap:butt;stroke-linejoin:miter;stroke-miterlimit:4;stroke-dasharray:none;stroke-opacity:1"
         d="m 22.566487,98.255905 c 0,-3.408731 1.844936,-6.122559 6.919518,-6.126431 l 78.637895,-0.06 c 4.53669,-0.0034 6.51122,2.630708 6.51122,6.186434 v 13.512212 c 0,5.042 -3.8529,6.4504 -6.51122,6.4504 H 29.486005 c -5.307347,0 -6.919518,-3.77189 -6.919518,-6.4504 z"
         id="path7574"
         sodipodi:nodetypes="sssssssss" />
    </g>
  </g>
  <g
     inkscape:groupmode="layer"
     id="layer5"
     inkscape:label="Layer 5"
     style="display:none"
     sodipodi:insensitive="true">
    <g
       id="g15254">
      <path
         style="fill:#000000;stroke:none;stroke-width:0.264583px;stroke-linecap:butt;stroke-linejoin:miter;stroke-opacity:1"
         d="m 11.365234,32.06546 c 0,-10.880661 8.938069,-19.199636 18.907038,-19.199636 9.968968,0 18.899145,8.959507 18.963246,19.215364 0.0641,10.255856 -9.449875,18.748069 -18.963246,18.748069 -9.513372,0 -18.907038,-7.883137 -18.907038,-18.763797 z"
         id="path10932"
         sodipodi:nodetypes="zzzzz" />
      <path
         style="fill:#000000;stroke:none;stroke-width:0.264583px;stroke-linecap:butt;stroke-linejoin:miter;stroke-opacity:1"
         d="M 6.6338444,56.492258 C 9.9221535,55.51227 13.45655,55.555852 16.963243,55.484201 L 30.30962,108.07628 43.730288,55.589392 c 5.04907,0.0011 13.623529,0.395175 14.729144,2.004681 L 74.936693,81.580968 86.710151,65.462805 h 28.701469 c -0.38669,2.799555 -5.70408,5.064654 -14.03583,7.256392 -2.723457,0.716427 -5.002037,1.884292 -6.159188,3.481229 L 80.496107,96.515601 c -2.780285,3.836959 -8.322991,5.122249 -12.135434,0.431734 L 58.792382,85.175298 V 126.58627 H 6.7984208 Z"
         id="path10934"
         sodipodi:nodetypes="ccccscccsssscccc" />
      <path
         style="fill:#000000;stroke:none;stroke-width:0.264583px;stroke-linecap:butt;stroke-linejoin:miter;stroke-opacity:1"
         d="m 73.063243,53.133813 c 0,-1.199191 0.363284,-2.231383 2.243405,-2.231383 h 2.533996 c 2.409691,-8.932754 9.269613,-18.824019 23.369906,-18.824019 14.10029,0 20.80583,9.317285 23.42504,18.824019 h 3.1009 c 1.09569,0 1.82972,0.949216 1.82972,2.231383 v 4.991154 c 0,1.253488 -0.8711,1.93076 -1.82972,1.93076 H 75.306648 c -1.248913,0 -2.243405,-0.519134 -2.243405,-1.93076 z"
         id="path10936"
         sodipodi:nodetypes="ssczcsssssss" />
      <path
         style="fill:#000000;stroke:none;stroke-width:0.265;stroke-linecap:butt;stroke-linejoin:miter;stroke-miterlimit:4;stroke-dasharray:none;stroke-opacity:1"
         d="m 96.502289,27.115882 c 0,-2.725214 2.238665,-4.808816 4.735531,-4.808816 2.49685,0 4.73355,2.244033 4.74961,4.812755 0.0163,2.568723 -2.36686,4.695716 -4.74961,4.695716 -2.382755,0 -4.735531,-1.974442 -4.735531,-4.699655 z"
         id="path13431"
         sodipodi:nodetypes="zzzzz" />
    </g>
  </g>
  <g
     inkscape:groupmode="layer"
     id="layer6"
     inkscape:label="Layer 6"
     style="display:none">
    <g
       inkscape:label="Rendered Gears"
       transform="matrix(2.2875806,0,0,2.2875806,103.5971,96.532441)"
       id="g15950"
       style="display:inline;opacity:1" />
    <g
       id="g16571"
       transform="translate(1.0583333)" />
    <g
       id="g18810">
      <path
         id="path15276"
         style="display:inline;opacity:1;fill:#000000;stroke:none;stroke-width:0.999999px;stroke-linecap:butt;stroke-linejoin:miter;stroke-opacity:1"
         d="m 187.36133,245.07617 c -54.95149,0 -84.44141,25.74638 -84.44141,72.36914 v 137.42774 h 308.48633 v -31.25586 h -8.89648 l -1.43946,10.07031 -1.69726,4.18359 -11.50977,12.40625 -8.13672,-2.64453 -2.01953,-16.80078 1.08789,-4.38281 4.75391,-8.99219 -13.35547,-9.70508 -7.08594,7.30078 -3.83203,2.38868 -16.60351,3.26953 -5.02735,-6.91992 8.24024,-14.78125 3.45703,-2.9043 9.13086,-4.48242 -5.10157,-15.70117 -10.02148,1.74023 -4.50391,-0.31836 -15.35547,-7.11328 v -8.55664 l 15.35547,-7.11133 4.50391,-0.32031 10.02148,1.74023 5.10157,-15.69922 -9.13086,-4.48242 -3.45703,-2.90625 -8.24024,-14.7793 5.02735,-6.92187 16.60351,3.26953 3.83203,2.39063 7.08594,7.29882 13.35547,-9.70312 -4.75391,-8.99414 -1.08789,-4.38281 2.01953,-16.80079 8.13672,-2.64453 11.50977,12.40625 1.69726,4.18555 1.43946,10.06836 H 411 c -3.73228,-41.7779 -33.61378,-63.43031 -83.20703,-63.21094 0,0 -33.86925,14.04471 -59.20508,17.78516 l -3.2832,9.10547 17.33008,112.11328 -24.93555,22.95508 -25.4961,-22.95508 15.53907,-112.11328 -3.46485,-9.49219 c -25.05799,-4.23613 -56.91601,-17.39844 -56.91601,-17.39844 z m 223.40429,98 c -12.63488,-6.3e-4 -22.87759,10.2421 -22.87695,22.87695 4.2e-4,12.63408 10.24286,22.87565 22.87695,22.875 0.21355,-0.008 0.42724,-0.0179 0.64063,-0.0293 v -45.71289 c -0.21354,-0.006 -0.42704,-0.01 -0.64063,-0.01 z"
         transform="scale(0.26458333)" />
      <path
         style="display:inline;opacity:1;fill:#000000;stroke:none;stroke-width:0.264583;stroke-linecap:butt;stroke-linejoin:miter;stroke-miterlimit:4;stroke-dasharray:none;stroke-opacity:1"
         d="m 67.9542,15.656362 c -15.851681,0.08074 -25.896754,14.079976 -25.896754,27.163946 0,13.083969 11.958193,25.046607 25.896754,25.065549 C 81.89276,67.904799 94.029176,56.195073 94.023993,42.820308 94.01881,29.445542 83.80588,15.575619 67.9542,15.656362 Z"
         id="path15274"
         sodipodi:nodetypes="zzzzz" />
      <path
         id="path15948"
         style="display:inline;opacity:1;fill:#000000;stroke:#000000;stroke-width:0.605256"
         d="m 114.7408,74.513796 -3.04529,3.282487 -0.44855,1.107427 -0.38138,2.66392 h -2.12028 c 0.0698,0.781431 0.10594,1.588598 0.10594,2.423107 v 6.791317 a 6.0525567,6.0525567 0 0 1 5.88284,6.043041 6.0525567,6.0525567 0 0 1 -5.88284,6.025475 v 9.23148 h 2.01434 l 0.38138,2.66443 0.44855,1.10691 3.04529,3.28249 2.15284,-0.6997 0.53433,-4.44521 -0.28783,-1.15962 -1.25729,-2.37918 3.53363,-2.5678 1.87431,1.93166 1.01389,0.63201 4.39301,0.86506 1.33015,-1.83089 -2.18023,-3.91088 -0.91467,-0.76843 -2.41587,-1.18597 1.34979,-4.154267 2.65151,0.460436 1.19166,-0.08423 4.0628,-1.882055 v -2.263945 l -4.0628,-1.881539 -1.19166,-0.08475 -2.65151,0.460436 -1.34979,-4.153752 2.41587,-1.185973 0.91467,-0.768946 2.18023,-3.910356 -1.33015,-1.831412 -4.39301,0.865064 -1.01389,0.63252 -1.87431,1.931147 -3.53363,-2.567284 1.25729,-2.3797 0.28783,-1.159618 -0.53433,-4.445209 z" />
    </g>
  </g>
  <g
     inkscape:label="Layer 1"
     inkscape:groupmode="layer"
     id="layer1"
     style="display:inline;opacity:1">
    <path
       style="fill:#000000;stroke-width:0.776982"
       d="m 52.722862,105.74817 c -2.991383,-0.58889 -6.924857,-1.63386 -8.741056,-2.3222 l -3.302176,-1.25156 v -8.064888 c 0,-12.415972 3.090454,-18.787448 11.225141,-23.142461 2.887128,-1.545658 4.279935,-1.685873 16.746235,-1.685873 12.466295,0 13.859109,0.140223 16.746236,1.685873 8.129917,4.352464 11.225137,10.728221 11.225137,23.122345 v 8.044794 l -2.995562,1.19861 c -8.720076,3.48908 -29.281729,4.70323 -40.903955,2.41536 z M 20.866574,94.178473 C 17.87519,93.633231 13.417251,92.551995 10.960044,91.775755 L 6.4923949,90.364412 V 83.55173 c 0,-13.126053 3.1549615,-20.157132 10.8482351,-24.176147 3.988117,-2.083418 4.420834,-2.137627 17.063361,-2.137627 13.800688,0 14.173892,0.09094 16.625025,4.051823 1.724848,2.787242 1.64827,3.50633 -0.442858,4.158558 -2.996684,0.934675 -8.098536,5.009721 -10.487985,8.377159 -3.214887,4.530733 -4.857423,10.003394 -4.857423,16.184141 v 5.300466 l -4.467649,-0.07019 c -2.457208,-0.03847 -6.915147,-0.516226 -9.906527,-1.06147 z M 101.8978,88.511518 c -0.25748,-4.951476 -0.84015,-7.813778 -2.144556,-10.534992 -2.2193,-4.629878 -7.580099,-10.088741 -11.686849,-11.900631 -3.49932,-1.543898 -3.612644,-1.846335 -1.7934,-4.786116 2.451131,-3.960863 2.824339,-4.051823 16.625015,-4.051823 12.64253,0 13.07525,0.05421 17.06336,2.137627 7.69907,4.022033 10.84825,11.048561 10.84825,24.204838 v 6.841432 l -5.63312,1.644805 c -6.6606,1.94481 -14.33016,3.229409 -19.32953,3.237573 l -3.59564,0.0059 z M 61.927586,64.186186 C 52.168919,59.355675 51.285277,45.09038 60.355373,38.804797 c 2.642525,-1.83127 3.894868,-2.156879 8.295633,-2.156879 6.595199,0 10.518595,2.414818 13.189978,8.118332 5.97216,12.750814 -7.279215,25.673816 -19.913398,19.419936 z M 30.190366,53.192555 C 17.854109,48.880391 16.183003,33.171161 27.335656,26.356878 c 3.161246,-1.931526 9.29693,-2.364073 13.099149,-0.923453 5.142932,1.948605 8.791633,7.73463 8.791633,13.941562 0,4.700336 -1.285477,7.460264 -4.989456,10.712402 -4.15169,3.645229 -9.266762,4.775978 -14.046616,3.105166 z m 67.704138,-0.20066 c -3.370366,-1.201501 -7.078793,-4.417406 -8.722827,-7.564335 -1.571012,-3.007166 -1.379844,-9.453746 0.382244,-12.889752 2.907125,-5.668789 6.775249,-7.935812 13.529139,-7.92914 13.48365,0.01321 19.62655,17.903321 8.88554,25.877471 -4.82811,3.584405 -8.97652,4.322992 -14.074096,2.505756 z"
       id="path18950" />
  </g>
</svg>
